<?xml version="1.0" standalone="no"?>
<!DOCTYPE svg PUBLIC "-//W3C//DTD SVG 20010904//EN"
 "http://www.w3.org/TR/2001/REC-SVG-20010904/DTD/svg10.dtd">
<svg version="1.0" xmlns="http://www.w3.org/2000/svg"
 width="225.000000pt" height="225.000000pt" viewBox="0 0 225.000000 225.000000"
 preserveAspectRatio="xMidYMid meet">
<metadata>
Created by potrace 1.11, written by Peter Selinger 2001-2013
</metadata>
<g transform="translate(0.000000,225.000000) scale(0.100000,-0.100000)"
fill="#000000" stroke="none">
<path d="M2 1883 l3 -368 363 -3 362 -2 0 370 0 370 -365 0 -365 0 2 -367z
m708 -3 l0 -350 -345 0 -345 0 0 350 0 350 345 0 345 0 0 -350z"/>
<path d="M260 2077 c0 -16 9 -28 25 -35 25 -12 25 -12 25 -151 0 -114 -3 -143
-16 -155 -8 -9 -20 -16 -25 -16 -5 0 -9 -11 -9 -25 l0 -25 110 0 c109 0 110 0
110 23 0 16 -9 28 -25 35 l-26 12 3 147 c3 143 4 148 26 158 13 6 22 18 22 32
0 23 -2 23 -110 23 -109 0 -110 0 -110 -23z"/>
<path d="M760 1880 l0 -370 365 0 365 0 0 370 0 370 -365 0 -365 0 0 -370z"/>
<path d="M1512 1883 l3 -368 365 0 365 0 3 368 2 367 -370 0 -370 0 2 -367z"/>
<path d="M0 1130 l0 -370 365 0 365 0 0 370 0 370 -365 0 -365 0 0 -370z"/>
<path d="M760 1130 l0 -370 365 0 365 0 0 370 0 370 -365 0 -365 0 0 -370z
m710 0 l0 -350 -345 0 -345 0 0 350 0 350 345 0 345 0 0 -350z"/>
<path d="M920 1325 c0 -19 6 -29 20 -32 28 -7 31 -29 28 -178 -3 -124 -4 -130
-25 -140 -14 -6 -23 -18 -23 -32 l0 -23 174 0 c172 0 175 0 205 25 60 51 64
134 9 180 l-30 25 26 31 c29 34 33 67 12 108 -24 46 -56 54 -233 59 l-163 4 0
-27z m282 -52 c10 -9 18 -26 18 -38 0 -39 -23 -57 -78 -63 l-52 -5 0 55 c0 30
3 58 7 61 13 14 87 7 105 -10z m12 -179 c42 -42 -2 -124 -67 -124 -46 0 -57
15 -57 82 l0 58 54 0 c36 0 60 -5 70 -16z"/>
<path d="M1510 1135 l0 -365 370 0 370 0 0 365 0 365 -370 0 -370 0 0 -365z"/>
<path d="M7 743 c-4 -3 -7 -170 -7 -370 l0 -363 365 0 365 0 0 370 0 370 -358
0 c-197 0 -362 -3 -365 -7z"/>
<path d="M760 380 l0 -370 365 0 365 0 0 370 0 370 -365 0 -365 0 0 -370z"/>
<path d="M1520 380 l0 -370 365 0 365 0 -2 368 -3 367 -362 3 -363 2 0 -370z
m710 0 l0 -350 -350 0 -350 0 0 350 0 350 350 0 350 0 0 -350z"/>
<path d="M1783 589 c-69 -34 -96 -98 -69 -162 17 -42 44 -57 151 -87 89 -24
121 -47 111 -78 -11 -33 -59 -47 -109 -32 -40 12 -93 55 -114 94 -8 15 -15 17
-36 10 l-25 -9 26 -83 c20 -64 29 -82 44 -82 10 0 21 6 24 14 5 12 10 12 39 0
44 -18 116 -18 158 0 75 32 115 117 87 185 -15 38 -42 56 -116 76 -135 37
-170 59 -144 90 32 39 122 23 169 -30 30 -35 54 -44 66 -25 3 5 -2 37 -11 70
-14 51 -20 60 -39 60 -13 0 -25 -5 -27 -11 -3 -8 -14 -7 -35 5 -43 22 -100 20
-150 -5z"/>
</g>
</svg>
